# xmcd
#
# Track frame offsets: 
#        150
#        19872
#        34421
#        50103
#        70099
#        89390
#        108080
#        127912
#        147132
#        168753
#        198498
#        214367
#        228317
#
# Disc length: 3355 seconds
#
# Revision: 4
# Processed by: cddbd v1.5.2PL0 Copyright (c) Steve Scherf et al.
# Submitted via: ExactAudioCopy v0.95b4
#
DISCID=b30d190d,b40d190d
DTITLE=Flash And The Pan - Flash And The Pan
DYEAR=1978
DGENRE=Pop
TTITLE0=Hey, St. Peter
TTITLE1=Man In The Middle
TTITLE2=Walking In The Rain
TTITLE3=The African Shuffle
TTITLE4=California
TTITLE5=Lady Killer
TTITLE6=The Man Who Knew The Answer
TTITLE7=Hole In The Middle
TTITLE8=Down Among The Dead Men
TTITLE9=First And Last
TTITLE10=Down Among The Dead Men (Single Version)
TTITLE11=The African Shuffle (Single Version)
TTITLE12=First And Last (Single Version)
EXTD=Repertoire Records\n© 1999\nREP 4779-WG
EXTT0=
EXTT1=
EXTT2=
EXTT3=
EXTT4=
EXTT5=
EXTT6=
EXTT7=
EXTT8=
EXTT9=
EXTT10=
EXTT11=
EXTT12=
PLAYORDER=
